<mxfile host="app.diagrams.net" modified="2023-01-10T11:18:32.867Z" agent="5.0 (Windows NT 10.0; Win64; x64) AppleWebKit/537.36 (KHTML, like Gecko) Chrome/108.0.0.0 Safari/537.36 Edg/108.0.1462.76" etag="kKDfsLpMZRI-SvzocIL0" version="20.8.3" type="github">
  <diagram id="MzlWLu_fPgEwuyHxGW9D" name="Page-1">
    <mxGraphModel dx="1328" dy="1075" grid="1" gridSize="10" guides="1" tooltips="1" connect="1" arrows="1" fold="1" page="1" pageScale="1" pageWidth="1100" pageHeight="850" math="0" shadow="0">
      <root>
        <object label="" Demodata="demovalue" id="0">
          <mxCell />
        </object>
        <mxCell id="1" parent="0" />
        <object label="%name%" placeholders="1" name="test-name" id="dg9BpaUX-qLz9Fnh85Ra-1">
          <mxCell style="aspect=fixed;html=1;points=[];align=center;image;fontSize=12;image=img/lib/azure2/app_services/App_Services.svg;metaEdit=0;" parent="1" vertex="1">
            <mxGeometry x="200" y="80" width="64" height="64" as="geometry" />
          </mxCell>
        </object>
        <object label="Demo drawing&lt;br&gt;Using placeholder data&lt;br&gt;&lt;br&gt;date: %date%" placeholders="1" id="dg9BpaUX-qLz9Fnh85Ra-2">
          <mxCell style="rounded=1;whiteSpace=wrap;html=1;arcSize=6;verticalAlign=top;align=left;" parent="1" vertex="1">
            <mxGeometry x="30" y="20" width="130" height="140" as="geometry" />
          </mxCell>
        </object>
      </root>
    </mxGraphModel>
  </diagram>
</mxfile>
